<svg xmlns="http://www.w3.org/2000/svg" viewBox="0 0 860 500" width="860" height="500" font-family="ui-sans-serif, 'IBM Plex Sans', system-ui, sans-serif" role="img" aria-label="One story, start to Done: start_story gates on git, demolition deletes the condemned surface, each development task runs under a path allowlist with the judge verifying git before any checkbox — FAIL loops with the missing proof, and there is no direct path from developer to the box.">
  <defs>
    <style>
      .mono { font-family: ui-monospace, 'JetBrains Mono', Menlo, Consolas, monospace; }
    </style>
    <marker id="fern" viewBox="0 0 10 10" refX="8" refY="5" markerWidth="7" markerHeight="7" orient="auto-start-reverse">
      <path d="M0,0 L10,5 L0,10 z" fill="#3f8a5c"/>
    </marker>
    <marker id="fernb" viewBox="0 0 10 10" refX="8" refY="5" markerWidth="7" markerHeight="7" orient="auto-start-reverse">
      <path d="M0,0 L10,5 L0,10 z" fill="#6FAE8B"/>
    </marker>
    <marker id="clay" viewBox="0 0 10 10" refX="8" refY="5" markerWidth="7" markerHeight="7" orient="auto-start-reverse">
      <path d="M0,0 L10,5 L0,10 z" fill="#b0503b"/>
    </marker>
  </defs>

  <rect x="2" y="2" width="856" height="496" rx="3" fill="#0c1310" stroke="#263229"/>

  <text x="28" y="36" font-size="18" font-weight="600" fill="#eef3ef">One story, start to Done</text>
  <text x="28" y="56" font-size="12.5" fill="#7c8f83">Gated entry · demolition first · one watched task · evidence-judged boxes</text>
  <line x1="28" y1="70" x2="832" y2="70" stroke="#263229"/>

  <!-- YOU -->
  <text x="28" y="98" font-size="10" letter-spacing="1.2" fill="#55655c">YOU — ZERO TRUST</text>
  <rect x="160" y="80" width="672" height="28" rx="3" fill="#101813" stroke="#35443b"/>
  <rect x="160" y="80" width="3" height="28" fill="#2F7E52"/>
  <text x="496" y="98" text-anchor="middle" class="mono" font-size="11" fill="#8fc4a6">path allowlist — intervene on the first off-list write</text>
  <line x1="242" y1="108" x2="242" y2="168" stroke="#6FAE8B" stroke-width="1.2" stroke-dasharray="3 4"/>
  <line x1="520" y1="108" x2="520" y2="168" stroke="#6FAE8B" stroke-width="1.2" stroke-dasharray="3 4"/>

  <!-- AGENTS -->
  <text x="28" y="158" font-size="10" letter-spacing="1.2" fill="#55655c">AGENTS</text>

  <rect x="28" y="172" width="120" height="72" rx="3" fill="#101813" stroke="#3a3a2a"/>
  <rect x="28" y="172" width="3" height="72" fill="#d6ca8a"/>
  <text x="42" y="194" class="mono" font-size="12" fill="#d6ca8a">start_story</text>
  <text x="42" y="212" font-size="9.5" fill="#a9baaf">git gate: branch,</text>
  <text x="42" y="226" font-size="9.5" fill="#a9baaf">order, prior work</text>
  <line x1="148" y1="208" x2="172" y2="208" stroke="#3f8a5c" stroke-width="2" marker-end="url(#fern)"/>

  <rect x="176" y="172" width="132" height="72" rx="3" fill="#12100e" stroke="#5a382e"/>
  <rect x="176" y="172" width="3" height="72" fill="#b0503b"/>
  <text x="190" y="194" font-size="12.5" font-weight="600" fill="#cf7e6b">Demolition</text>
  <text x="190" y="212" font-size="9.5" fill="#a9baaf">delete condemned</text>
  <text x="190" y="226" font-size="9.5" fill="#a9baaf">surface · red OK</text>
  <line x1="308" y1="208" x2="332" y2="208" stroke="#3f8a5c" stroke-width="2" marker-end="url(#fern)"/>

  <!-- task loop frame -->
  <rect x="336" y="160" width="496" height="132" rx="6" fill="none" stroke="#2b3a31" stroke-dasharray="5 4"/>
  <text x="352" y="176" font-size="9.5" font-style="italic" fill="#7c8f83">once per task, in T# order</text>

  <rect x="352" y="186" width="168" height="68" rx="3" fill="#101813" stroke="#35443b"/>
  <rect x="352" y="186" width="3" height="68" fill="#2F7E52"/>
  <text x="366" y="208" font-size="12.5" font-weight="600" fill="#eef3ef">Development task</text>
  <text x="366" y="226" font-size="9.5" fill="#a9baaf">one T# · Allowlist + Check</text>
  <text x="366" y="242" class="mono" font-size="9.5" fill="#7c8f83">board denied</text>

  <line x1="520" y1="220" x2="548" y2="220" stroke="#3f8a5c" stroke-width="2" marker-end="url(#fern)"/>

  <rect x="552" y="186" width="168" height="68" rx="3" fill="#1E4D33" stroke="#6FAE8B" stroke-width="1.5"/>
  <text x="566" y="208" font-size="12.5" font-weight="600" fill="#ffffff">Completion judge</text>
  <text x="566" y="226" font-size="9.5" fill="#c6dccd">verify Allowlist + Check,</text>
  <text x="566" y="242" font-size="9.5" fill="#c6dccd">then rule on evidence</text>

  <!-- FAIL under the two boxes, inside the frame -->
  <path d="M 636,254 L 636,270 L 400,270 L 400,254" fill="none" stroke="#b0503b" stroke-width="1.5" stroke-dasharray="4 3" marker-end="url(#clay)"/>
  <text x="518" y="266" text-anchor="middle" font-size="9.5" font-style="italic" fill="#cf7e6b">FAIL — names the missing proof</text>

  <!-- PASS -->
  <line x1="720" y1="254" x2="720" y2="340" stroke="#6FAE8B" stroke-width="2.5" marker-end="url(#fernb)"/>
  <text x="732" y="300" font-size="10" font-weight="600" fill="#6FAE8B">PASS</text>

  <!-- forbidden path: Dev bottom → toward checkbox, cut by X (stays right of FAIL) -->
  <path d="M 436,254 L 436,300 L 660,300" fill="none" stroke="#b0503b" stroke-width="1.4" stroke-dasharray="4 3"/>
  <line x1="652" y1="292" x2="668" y2="308" stroke="#b0503b" stroke-width="2"/>
  <line x1="668" y1="292" x2="652" y2="308" stroke="#b0503b" stroke-width="2"/>
  <text x="548" y="294" text-anchor="middle" font-size="9.5" font-style="italic" fill="#cf7e6b">no direct path to the box</text>

  <!-- RECORD -->
  <text x="28" y="356" font-size="10" letter-spacing="1.2" fill="#55655c">THE BOARD &amp; GIT — THE RECORD</text>

  <line x1="88" y1="244" x2="88" y2="368" stroke="#2b3a31" stroke-width="1.2" stroke-dasharray="3 4"/>
  <rect x="28" y="368" width="130" height="52" rx="3" fill="#0e1511" stroke="#263229"/>
  <text x="40" y="388" class="mono" font-size="10" fill="#c9d6cc">#212 → In Progress</text>
  <text x="40" y="404" font-size="9" fill="#7c8f83">epic branch · focus</text>

  <line x1="242" y1="244" x2="242" y2="368" stroke="#2b3a31" stroke-width="1.2" stroke-dasharray="3 4"/>
  <rect x="172" y="368" width="148" height="52" rx="3" fill="#0e1511" stroke="#263229"/>
  <text x="184" y="388" class="mono" font-size="10" fill="#c9d6cc">demolition report</text>
  <text x="184" y="404" font-size="9" fill="#7c8f83">REMOVED · SEVERED</text>

  <rect x="656" y="368" width="124" height="52" rx="3" fill="#101813" stroke="#3f8a5c"/>
  <rect x="668" y="382" width="12" height="12" rx="2" fill="#2F7E52"/>
  <path d="M 670.5,388 L 673,390.5 L 677.5,384" fill="none" stroke="#eef3ef" stroke-width="1.6" stroke-linecap="round" stroke-linejoin="round"/>
  <text x="686" y="392" class="mono" font-size="11" fill="#c9d6cc">T# done</text>
  <text x="668" y="408" font-size="9" fill="#7c8f83">judge alone</text>

  <!-- next T#: from checkbox left then up into Dev — keep clear of forbidden X zone -->
  <path d="M 656,394 L 480,394 L 480,254" fill="none" stroke="#6FAE8B" stroke-width="1.5" stroke-dasharray="4 3" marker-end="url(#fernb)"/>
  <text x="560" y="388" class="mono" font-size="9.5" fill="#8fc4a6">next T#</text>

  <text x="806" y="384" text-anchor="middle" font-size="9" fill="#7c8f83">all ✓</text>
  <line x1="780" y1="394" x2="826" y2="394" stroke="#3f8a5c" stroke-width="2" marker-end="url(#fern)"/>
  <text x="832" y="412" text-anchor="end" class="mono" font-size="8.5" fill="#8fc4a6">move_to_done</text>

  <line x1="28" y1="440" x2="832" y2="440" stroke="#1b2620"/>
  <text x="28" y="462" font-size="11" fill="#6d8074">One branch, one story, one watched agent — every box earned. finish_epic refuses until the branch is merged.</text>
</svg>
